<svg width="1024" height="1024" viewBox="0 0 1024 1024" fill="none" xmlns="http://www.w3.org/2000/svg">
  <rect width="1024" height="1024" fill="#f55b2a" />
  <g transform="translate(240 240)">
    <svg width="544" height="544" viewBox="0 0 24 24" fill="none" xmlns="http://www.w3.org/2000/svg">
      <path
        fill="#ffffff"
        d="M3 7.5C3 6.12 4.12 5 5.5 5h13C19.88 5 21 6.12 21 7.5v9c0 1.38-1.12 2.5-2.5 2.5h-13C4.12 19 3 17.88 3 16.5v-9zm2.5-.5a.5.5 0 0 0-.5.5v9c0 .28.22.5.5.5h13a.5.5 0 0 0 .5-.5v-9a.5.5 0 0 0-.5-.5h-13zm6.5 2c1.66 0 3 1.34 3 3s-1.34 3-3 3-3-1.34-3-3 1.34-3 3-3zm0 2a1 1 0 1 0 0 2 1 1 0 0 0 0-2zM7 8.5a1 1 0 0 0-1 1V10h2V9.5a1 1 0 0 0-1-1zm10 0a1 1 0 0 0-1 1V10h2V9.5a1 1 0 0 0-1-1zm0 5a1 1 0 0 0-1 1v.5h2v-.5a1 1 0 0 0-1-1zm-10 0a1 1 0 0 0-1 1v.5h2v-.5a1 1 0 0 0-1-1z"
      />
    </svg>
  </g>
</svg>
